<svg id="Layer_1" data-name="Layer 1" xmlns="http://www.w3.org/2000/svg" viewBox="0 0 500 500"><defs><style>.cls-1{fill:#e9c31c;}.cls-2{fill:#6d1cbd;}</style></defs><path class="cls-1" d="M250,44.95a205.109,205.109,0,0,1,79.809,393.994A205.108,205.108,0,0,1,170.191,61.056,203.751,203.751,0,0,1,250,44.95m0-20C125.708,24.95,24.95,125.708,24.95,250S125.708,475.05,250,475.05,475.05,374.292,475.05,250,374.292,24.95,250,24.95Z"/><path class="cls-2" d="M165.339,164.747h92.4a110.372,110.372,0,0,1,38.55,6.6,83.731,83.731,0,0,1,30.9,19.8q13.051,13.2,20.4,33.15t7.349,46.35a148.437,148.437,0,0,1-6,43.2,95.077,95.077,0,0,1-18.15,34.2,85.035,85.035,0,0,1-30.3,22.65q-18.153,8.255-42.75,8.25h-92.4Zm98.4-19.5h-39l-33-42.6h34.5l18.6,24.3,19.2-24.3h33Zm-9.3,194.1a60.439,60.439,0,0,0,19.8-3.3,43.589,43.589,0,0,0,17.1-10.949q7.494-7.651,12-19.951t4.5-30a124.9,124.9,0,0,0-3.151-29.25,58.353,58.353,0,0,0-10.349-22.35,45.944,45.944,0,0,0-19.051-14.25q-11.853-4.95-29.25-4.95h-33.6v135Z"/></svg>