<svg id="Layer_1" data-name="Layer 1" xmlns="http://www.w3.org/2000/svg" viewBox="0 0 134.807 177.365"><defs><style>.cls-1{fill:#ffd31a;}.cls-2{fill:#6d1bbd;}</style></defs><path class="cls-1" d="M134.807,10.831A10.831,10.831,0,0,0,123.976,0H10.831A10.831,10.831,0,0,0,0,10.831V123.976a10.837,10.837,0,0,0,.3,2.486,9.37,9.37,0,0,0,4.573,7.819H4.8l62.727,43.084,62.725-43.084h-.067a9.37,9.37,0,0,0,4.579-8.033h-.2a10.832,10.832,0,0,0,.243-2.272Z"/><path class="cls-2" d="M63.006,108.193a75.642,75.642,0,0,0,.346-7.965c0-25.625-9.7-45.537-9.7-68.912,0-8.83,6.06-14.2,13.159-14.2s13.159,5.368,13.159,14.2c0,23.375-9.7,43.287-9.7,68.912a75.642,75.642,0,0,0,.346,7.965Zm3.809,10.389a12.466,12.466,0,1,1-12.467,12.466A12.414,12.414,0,0,1,66.815,118.582Z"/></svg>