<svg id="Layer_1" data-name="Layer 1" xmlns="http://www.w3.org/2000/svg" viewBox="0 0 115.88 183.085"><defs><style>.cls-1{fill:#eac31c;}.cls-2{fill:#ffd31a;}.cls-3{fill:#6d1bbd;}</style></defs><path class="cls-1" d="M115.88,58.172A57.94,57.94,0,1,0,5.028,81.814,115.9,115.9,0,0,1,15,129.168v21.27a6,6,0,0,0,2.882,5.13h0l40.06,27.517L98,155.568h0a6,6,0,0,0,2.882-5.13v-21.27a115.886,115.886,0,0,1,9.971-47.354A57.729,57.729,0,0,0,115.88,58.172Z"/><circle class="cls-2" cx="57.94" cy="57.7" r="57.7"/><path class="cls-3" d="M66.1,42.5,61.2,68.922H54.37L49.778,43.214V21.688H66.1Zm0,51.211H49.778V76.369H66.1Z"/></svg>