<svg id="Layer_1" data-name="Layer 1" xmlns="http://www.w3.org/2000/svg" viewBox="0 0 99.437 180"><defs><style>.cls-1{fill:#6d1bbd;}.cls-2{fill:#fff;}</style></defs><path class="cls-1" d="M49.719,0h0A49.719,49.719,0,0,0,0,49.718V142.2a6.927,6.927,0,0,0,3.387,5.94H3.336L49.719,180,96.1,148.141h-.049a6.93,6.93,0,0,0,3.385-5.94V49.718A49.719,49.719,0,0,0,49.719,0Z"/><path class="cls-2" d="M47.251,102.28a48.781,48.781,0,0,0,.225-5.159c0-16.6-6.28-29.493-6.28-44.633,0-5.719,3.925-9.195,8.523-9.195s8.522,3.476,8.522,9.2c0,15.14-6.28,28.036-6.28,44.633a48.781,48.781,0,0,0,.225,5.159Zm2.468,6.729a8.074,8.074,0,1,1-8.075,8.074A8.04,8.04,0,0,1,49.719,109.009Z"/></svg>