<svg id="Layer_1" data-name="Layer 1" xmlns="http://www.w3.org/2000/svg" viewBox="0 0 115.88 183.085"><defs><style>.cls-1{fill:#6d1bbd;}.cls-2{fill:#7838dc;}.cls-3{fill:#ffd31a;}</style></defs><path class="cls-1" d="M115.88,58.172A57.94,57.94,0,1,0,5.028,81.814,115.9,115.9,0,0,1,15,129.168v21.27a6,6,0,0,0,2.882,5.13h0l40.06,27.517L98,155.568h0a6,6,0,0,0,2.882-5.13v-21.27a115.886,115.886,0,0,1,9.971-47.354A57.729,57.729,0,0,0,115.88,58.172Z"/><circle class="cls-2" cx="57.94" cy="57.7" r="57.7"/><path class="cls-3" d="M55.762,73.641a43.205,43.205,0,0,0,.2-4.554c0-14.655-5.545-26.041-5.545-39.408,0-5.05,3.465-8.119,7.525-8.119s7.525,3.069,7.525,8.119c0,13.367-5.545,24.753-5.545,39.408a43.205,43.205,0,0,0,.2,4.554Zm2.178,5.941a7.129,7.129,0,1,1-7.129,7.129A7.1,7.1,0,0,1,57.94,79.582Z"/></svg>