<svg id="Layer_1" data-name="Layer 1" xmlns="http://www.w3.org/2000/svg" viewBox="0 0 153.366 192"><defs><style>.cls-1{fill:#ffd31a;}.cls-2{fill:#6d1bbd;}</style></defs><path class="cls-1" d="M144.627,18.113A10.918,10.918,0,0,0,133.709,7.2H19.657A10.918,10.918,0,0,0,8.739,18.113V132.165a10.949,10.949,0,0,0,.3,2.506,9.448,9.448,0,0,0,4.61,7.882h-.07l63.23,43.43,63.228-43.43h-.067a9.444,9.444,0,0,0,4.615-8.1h-.2a10.939,10.939,0,0,0,.245-2.291Z"/><path class="cls-2" d="M112.959,60.4q0,14.441-11.489,23.756-.78.623-5.9,4.193-6.521,4.5-8.385,7.763t-1.863,10.714a43.388,43.388,0,0,0,.155,4.347H67.154v-3.881q0-16.923,4.348-22.98a27.1,27.1,0,0,1,7.686-6.91,46.146,46.146,0,0,0,8.85-7.3,13.784,13.784,0,0,0,3.494-9.7,13.237,13.237,0,0,0-4.969-10.558,17.089,17.089,0,0,0-11.335-4.193q-8.7,0-13.508,5.745t-4.814,14.6L38.119,63.811a58.321,58.321,0,0,1,2.95-14.44A30.314,30.314,0,0,1,54.655,33.223a43.469,43.469,0,0,1,21.66-5.28q15.216,0,25.931,8.7T112.959,60.4Zm-26.24,79.033H66.067V118.156H86.719Z"/></svg>