<svg id="Layer_1" data-name="Layer 1" xmlns="http://www.w3.org/2000/svg" viewBox="0 0 500 500"><defs><style>.cls-1{fill:#6d1bbd;}.cls-2{fill:#eac31c;}</style></defs><path class="cls-1" d="M362.376,245.229a112.376,112.376,0,1,0-215,45.855,224.773,224.773,0,0,1,19.339,91.843v41.255a11.643,11.643,0,0,0,5.589,9.95h0L250,487.5l77.7-53.368h0a11.641,11.641,0,0,0,5.589-9.95V382.928a224.762,224.762,0,0,1,19.34-91.844A111.984,111.984,0,0,0,362.376,245.229Z"/><circle class="cls-1" cx="250" cy="250" r="225"/><circle class="cls-2" cx="250" cy="250" r="125"/><path class="cls-1" d="M269.493,213.7,257.8,276.8H241.474l-10.967-61.4V163.988h38.986Zm0,122.317H230.507V294.589h38.986Z"/></svg>