<svg id="Layer_1" data-name="Layer 1" xmlns="http://www.w3.org/2000/svg" viewBox="0 0 500 500"><defs><style>.cls-1{fill:#6d1bbd;}.cls-2{fill:#eac31c;}</style></defs><path class="cls-1" d="M250,45a205,205,0,0,1,17.722,409.229l-5.264.45L258.1,457.67l-8.1,5.566-8.1-5.565-4.355-2.992-5.264-.45A204.992,204.992,0,0,1,250,45m0-20C125.736,25,25,125.736,25,250c0,117.718,90.407,214.305,205.573,224.156L250,487.5l19.427-13.344C384.594,464.3,475,367.718,475,250,475,125.736,374.264,25,250,25Z"/><circle class="cls-2" cx="250" cy="250" r="125"/><path class="cls-1" d="M269.493,213.7,257.8,276.8H241.474l-10.967-61.4V163.988h38.986Zm0,122.317H230.507V294.589h38.986Z"/></svg>